#!OML:ASF F:\VICON\USERDATA\INSTALL\rory3\rory3.ASF
:FULLY-SPECIFIED
:DEGREES
51
root 0.02650851700271864 17.902858356384733 28.723355973256005 3.555605988603217 1.6107157623697796 -6.951521859839284
lfemur -39.10378651961912 2.4625805812339596 -14.498706304412153
ltibia 88.19112000273631
lfoot -2.814783480040416 -4.334246973455701
ltoes -8.808166356211476
rfemur -1.2494904659344392 -0.22448257351033662 34.37391851185585
rtibia 40.284501975290965
rfoot -0.034814796209570176 -6.8902362373323065
rtoes -10.562157437505693
lowerback nan 1.9361626922859971 7.616055582078407
upperback -1.220029731016275 4.385021224524171 3.2469554160364753
thorax -10.176519245879314 1.6546745217043908 -2.9951138708269247
lowerneck -21.569819337852053 -4.246068080053369 -1.4010793768356065
upperneck 13.171519793145336 -5.719233576879662 1.9776328837396373
head 7.634010508939619 -2.6632625156898735 0.13973399014901022
lclavicle -1.3044618410630879e-15 2.3560856008277904e-15
lhumerus -59.383207163827784 -13.598698469054833 99.88451584483978
lradius 101.92879870631911
lwrist 36.43370653778096
lhand -24.551566142077196 1.0806407405542244
lfingers nan
lthumb 1.9749855657668864 31.15932132925026
rclavicle -2.848998447486962e-15 1.8209138010174365e-15
rhumerus -41.56946330447949 11.14331142944367 -93.28796542135471
rradius 112.1890975167077
rwrist -10.4713925129416
rhand -16.272765099647906 nan
rfingers nan
rthumb 9.074027356147086 11.00778208841323
52
root 0.1217553774503182 18.14318185071206 29.45488572893256 3.452492155333826 3.0238513771542537 -6.315769158375717
lfemur -38.6270436574359 0.38235987886625306 -15.863610170621488
ltibia 80.78957959338028
lfoot -2.5868696192163885 -4.012263239458436
ltoes -12.081789118434841
rfemur 2.1557078885396095 -0.82752977411735 33.15900876437249
rtibia 36.148738772167064
rfoot 9.27509085289596 -3.8381218147216676
rtoes -2.0466946303543856
lowerback nan 2.0072972874674226 7.588500857292879
upperback -1.57576327446306 4.335558943856543 2.787725937462307
thorax -9.930450301338697 1.6384765137154877 -3.4060589104600747
lowerneck -20.952268525304845 -4.487192987950699 -1.4372771857348319
upperneck 13.387456235303107 -6.086385077371122 2.0600262189767036
head 7.64083001481718 -2.8328056430100865 0.15658804467707
lclavicle 2.527814345817769e-15 3.4526811557335224e-15
lhumerus -60.20235275695755 -13.210047460853337 99.56876573315331
lradius 102.03294845604816
lwrist 36.2956755754946
lhand -24.53084428493653 0.39428399441152084
lfingers nan
lthumb 1.9980013232626863 30.53402555202844
rclavicle 4.051243426283307e-16 2.3178284312534762e-15
rhumerus -41.39560421958916 11.848726544151832 -93.12749202728047
rradius 112.9983190324132
rwrist -9.914194221707978
rhand -16.188431378366257 nan
rfingers nan
rthumb 8.51035659453433 11.428275980473662
53
root 0.17657459593287098 18.30219148421325 29.48539195732102 3.363657577117907 3.753461090447659 -5.59825071693009
lfemur -37.904518398062024 -0.8872401942470362 -17.131501317584725
ltibia 72.54593714837989
lfoot -2.1995618361953677 -4.826923239478644
ltoes -15.473568594540454
rfemur 5.529093303360813 -0.2987106415642884 32.33607643558784
rtibia 32.7945156040239
rfoot 17.798566672291045 -2.592489379407582
rtoes 4.925394913787897
lowerback nan 2.2130024447144576 7.18057293076658
upperback -1.9032518662633682 4.38072856937066 2.2642159101132258
thorax -9.64682678327171 1.6866089500063262 -3.7037435460198442
lowerneck -20.42800274805151 -4.747477570129315 -1.5245365277225162
upperneck 13.681780663249127 -6.494544756905221 2.1307205497564192
head 7.67248912765539 -3.0182298825115508 0.16826729119555262
lclavicle 1.9357298946029036e-15 3.629283737631242e-15
lhumerus -60.96718890851426 -12.651383206941919 99.27446818496247
lradius 102.3125728441963
lwrist 36.085418880440066
lhand -24.40527051020216 0.45685944028836256
lfingers nan
lthumb 1.9772662298645576 30.43201676973309
rclavicle -1.8369358610301823e-16 2.6435590167001322e-15
rhumerus -41.522980751350104 12.47128268540755 -93.15277283686459
rradius 113.61069518903922
rwrist -9.61845979999749
rhand -16.092763457899775 nan
rfingers nan
rthumb 8.281687770728881 11.7426370166197
54
root 0.22664516275071675 18.430743986933738 30.839654312035826 3.4201815477417514 4.408364048646417 -5.286689227024604
lfemur -36.802752800324434 -1.7885938840610283 -17.84009788848567
ltibia 63.96352838471934
lfoot -1.623518804167402 -6.869402143412196
ltoes -18.005587638748764
rfemur 7.929785828939799 0.7865342474217842 32.395179499102646
rtibia 31.717090157557912
rfoot 22.60982126115325 -3.0321641037111218
rtoes 9.041881043698329
lowerback nan 2.4064828092674833 7.068561961512157
upperback -2.158667575076275 4.515357724210377 1.947146140527122
thorax -9.428901968163895 1.7584088087375096 -3.9246117466456636
lowerneck -20.101070594155104 -4.963705721821183 -1.6442015492097357
upperneck 14.015103848176262 -6.827701105269462 2.2050451916138663
head 7.735017591503948 -3.1672404424503817 0.1837488043539181
lclavicle 1.617823680208878e-15 3.6907240436199535e-15
lhumerus -61.46490140175642 -11.997469716571642 99.03117644287586
lradius 102.81295943569818
lwrist 35.80897954327186
lhand -24.416980866577873 0.020448211732014387
lfingers nan
lthumb 1.9040008933932784 30.111446862904238
rclavicle -4.977850442282529e-16 2.702356954918232e-15
rhumerus -41.89743920556783 13.009160364298761 -93.36993055573214
rradius 114.01012762063124
rwrist -9.584232372028456
rhand -15.990284855412435 nan
rfingers nan
rthumb 8.379532940141262 11.832322261101778
